<svg width="401" height="79" viewBox="0 0 401 79" fill="none" xmlns="http://www.w3.org/2000/svg">
<path d="M19.3 78.5C15.2333 78.5 11.7333 77.9 8.8 76.7C5.93333 75.4333 3.73333 73.6333 2.2 71.3C0.733334 68.9 8.9407e-08 66 8.9407e-08 62.6H9C9 65.1333 9.9 67.1333 11.7 68.6C13.5 70 16.0333 70.7 19.3 70.7H23.7C27.0333 70.7 29.6 69.9666 31.4 68.5C33.2667 67.0333 34.2 64.9666 34.2 62.2999C34.2 59.8999 33.6667 58.0333 32.6 56.7C31.5333 55.3666 29.9 54.5666 27.7 54.2999L12.5 52.0999C8.76667 51.5666 5.86667 50.0333 3.8 47.4999C1.73333 44.8999 0.700001 41.4999 0.700001 37.2999C0.700001 32.4999 2.33333 28.7333 5.6 25.9999C8.93333 23.2666 13.5 21.8999 19.3 21.8999H23.7C29.0333 21.8999 33.3667 23.2333 36.7 25.9C40.1 28.4999 41.9333 31.9333 42.2 36.1999H33.1C32.9667 34.2666 32.0333 32.6666 30.3 31.3999C28.6333 30.1333 26.4333 29.4999 23.7 29.4999H19.3C16.2333 29.4999 13.8333 30.1999 12.1 31.5999C10.3667 32.9999 9.5 34.8999 9.5 37.2999C9.5 39.1666 9.93333 40.6666 10.8 41.7999C11.7333 42.9333 13.0667 43.6333 14.8 43.8999L29 45.8999C33.6667 46.5666 37.1667 48.2666 39.5 50.9999C41.8333 53.7333 43 57.4999 43 62.2999C43 67.4333 41.3 71.4333 37.9 74.3C34.5667 77.1 29.8333 78.5 23.7 78.5H19.3ZM61.1609 77.7V4.69995H70.1609V45.3999H80.6609L96.0609 22.6999H106.361L88.6609 48.8999L107.361 77.7H96.8609L80.8609 53.2H70.1609V77.7H61.1609ZM119.922 77.7V69.5H139.422V30.8999H121.922V22.6999H148.422V69.5H166.922V77.7H119.922ZM142.922 12.7999C140.722 12.7999 138.989 12.2333 137.722 11.1C136.455 9.96662 135.822 8.43328 135.822 6.49995C135.822 4.49995 136.455 2.93328 137.722 1.79994C138.989 0.599948 140.722 -4.98295e-05 142.922 -4.98295e-05C145.122 -4.98295e-05 146.855 0.599948 148.122 1.79994C149.389 2.93328 150.022 4.49995 150.022 6.49995C150.022 8.43328 149.389 9.96662 148.122 11.1C146.855 12.2333 145.122 12.7999 142.922 12.7999ZM209.383 77.7C206.183 77.7 203.383 77.0666 200.983 75.8C198.583 74.5333 196.716 72.7333 195.383 70.4C194.049 68.0666 193.383 65.3333 193.383 62.2V12.9H174.383V4.69995H202.383V62.2C202.383 64.4666 203.016 66.2666 204.283 67.6C205.549 68.8666 207.249 69.5 209.383 69.5H226.383V77.7H209.383ZM269.344 77.7C266.144 77.7 263.344 77.0666 260.944 75.8C258.544 74.5333 256.677 72.7333 255.344 70.4C254.01 68.0666 253.344 65.3333 253.344 62.2V12.9H234.344V4.69995H262.344V62.2C262.344 64.4666 262.977 66.2666 264.244 67.6C265.51 68.8666 267.21 69.5 269.344 69.5H286.344V77.7H269.344Z" fill="white"/>
<path d="M322.105 78.7C317.705 78.7 313.871 77.8666 310.605 76.2C307.405 74.5333 304.905 72.1333 303.105 69C301.371 65.8 300.505 62.0333 300.505 57.7V24.6999C300.505 20.2999 301.371 16.5333 303.105 13.4C304.905 10.2666 307.405 7.86661 310.605 6.19995C313.871 4.53328 317.705 3.69995 322.105 3.69995C326.505 3.69995 330.305 4.56662 333.505 6.29995C336.705 7.96662 339.171 10.3666 340.905 13.4999C342.638 16.6333 343.505 20.3666 343.505 24.6999H334.505C334.505 20.5666 333.405 17.4 331.205 15.2C329.071 12.9333 326.038 11.7999 322.105 11.7999C318.171 11.7999 315.071 12.9333 312.805 15.2C310.605 17.4 309.505 20.5666 309.505 24.6999V57.7C309.505 61.8333 310.605 65.0333 312.805 67.3C315.071 69.5 318.171 70.6 322.105 70.6C326.038 70.6 329.071 69.5 331.205 67.3C333.405 65.0333 334.505 61.8333 334.505 57.7H343.505C343.505 61.9666 342.638 65.7 340.905 68.9C339.171 72.0333 336.705 74.4666 333.505 76.2C330.305 77.8666 326.505 78.7 322.105 78.7ZM361.766 77.7V69.5H376.666V12.9H361.766V4.69995H400.766V12.9H385.866V69.5H400.766V77.7H361.766Z" fill="#6AD757"/>
</svg>
